<?xml version="1.0" standalone="no"?>
<!DOCTYPE svg PUBLIC "-//W3C//DTD SVG 1.1//EN" "http://www.w3.org/Graphics/SVG/1.1/DTD/svg11.dtd" >
<svg xmlns="http://www.w3.org/2000/svg">
<metadata>
Created by FontForge 20120731 at Mon Apr 18 06:59:42 2016
 By admin
</metadata>
<defs>
<font id="iconfont" horiz-adv-x="1024" >
  <font-face 
    font-family="iconfont"
    font-weight="500"
    font-stretch="normal"
    units-per-em="1024"
    panose-1="2 0 6 3 0 0 0 0 0 0"
    ascent="896"
    descent="-128"
    x-height="792"
    bbox="-0.333333 -183 1023 897"
    underline-thickness="50"
    underline-position="-100"
    unicode-range="U+0078-E612"
  />
<missing-glyph horiz-adv-x="374" 
d="M34 0v682h272v-682h-272zM68 34h204v614h-204v-614z" />
    <glyph glyph-name=".notdef" horiz-adv-x="374" 
d="M34 0v682h272v-682h-272zM68 34h204v614h-204v-614z" />
    <glyph glyph-name=".null" horiz-adv-x="0" 
 />
    <glyph glyph-name="nonmarkingreturn" horiz-adv-x="341" 
 />
    <glyph glyph-name="x" unicode="x" horiz-adv-x="1001" 
d="M281 543q-27 -1 -53 -1h-83q-18 0 -36.5 -6t-32.5 -18.5t-23 -32t-9 -45.5v-76h912v41q0 16 -0.5 30t-0.5 18q0 13 -5 29t-17 29.5t-31.5 22.5t-49.5 9h-133v-97h-438v97zM955 310v-52q0 -23 0.5 -52t0.5 -58t-10.5 -47.5t-26 -30t-33 -16t-31.5 -4.5q-14 -1 -29.5 -0.5
t-29.5 0.5h-32l-45 128h-439l-44 -128h-29h-34q-20 0 -45 1q-25 0 -41 9.5t-25.5 23t-13.5 29.5t-4 30v167h911zM163 247q-12 0 -21 -8.5t-9 -21.5t9 -21.5t21 -8.5q13 0 22 8.5t9 21.5t-9 21.5t-22 8.5zM316 123q-8 -26 -14 -48q-5 -19 -10.5 -37t-7.5 -25t-3 -15t1 -14.5
t9.5 -10.5t21.5 -4h37h67h81h80h64h36q23 0 34 12t2 38q-5 13 -9.5 30.5t-9.5 34.5q-5 19 -11 39h-368zM336 498v228q0 11 2.5 23t10 21.5t20.5 15.5t34 6h188q31 0 51.5 -14.5t20.5 -52.5v-227h-327z" />
    <glyph glyph-name="uniE600" unicode="&#xe600;" 
d="M764 611.5q0 16.5 -11.5 28t-28.5 11.5t-28.5 -11.5t-11.5 -28t11.5 -28t28.5 -11.5t28.5 11.5t11.5 28zM548.5 747q-16.5 0 -28 -12t-11.5 -28.5t11.5 -28t28 -11.5t28 11.5t11.5 28t-11.5 28.5t-28 12zM213.5 572q-16.5 0 -28.5 -12t-12 -28.5t12 -28t28.5 -11.5
t28 11.5t11.5 28t-11.5 28.5t-28 12zM356.5 715q-16.5 0 -28 -12t-11.5 -28.5t11.5 -28t28 -11.5t28.5 11.5t12 28t-12 28.5t-28.5 12zM508.5 858q-97.5 0 -186 -38t-152.5 -101.5t-102 -152t-38 -185.5v-32h293l154 -446h32q97 0 185.5 38t152.5 101.5t102 152t38 186
t-38 186t-102 152t-152.5 101.5t-186 38zM213.5 460q-29.5 0 -50.5 21t-21 50.5t21 50.5t50.5 21t50.5 -21t21 -50.5t-21 -50.5t-50.5 -21zM357 603q-30 0 -51 21t-21 51t21 51t51 21t51 -21t21 -51t-21 -51t-51 -21zM548.5 635q-29.5 0 -50.5 21t-21 51t21 50.5t50.5 20.5
t50.5 -20.5t21 -50.5t-21 -51t-50.5 -21zM652 611.5q0 29.5 21 50.5t51 21t51 -21t21 -50.5t-21 -50.5t-51 -21t-51 21t-21 50.5zM813.5 156q-25.5 -15 -54.5 -7t-43.5 33.5t-7 54t33.5 43.5t54.5 7.5t43.5 -33.5t7 -54.5t-33.5 -43.5zM819.5 349q-29.5 0 -50.5 21t-21 50.5
t21 50.5t50.5 21t51 -21t21.5 -50.5t-21.5 -50.5t-51 -21zM819.5 460q-16.5 0 -28 -11.5t-11.5 -28t11.5 -28t28 -11.5t28.5 11.5t12 28t-12 28t-28.5 11.5zM757.5 252.5q-14.5 -8.5 -18.5 -24t4 -30t24 -18.5t30.5 4t19 24t-4 30t-24.5 18.5t-30.5 -4z" />
    <glyph glyph-name="uniE601" unicode="&#xe601;" 
d="M992 602q-10 -11 -26 0l-268 268q-7 14 3 20q10 10 25 0l266 -263q5 -5 5 -13t-5 -12zM941 579l-119 -291q-18 -5 -49 -14.5t-114.5 -38.5t-154 -57.5t-144 -68t-107.5 -74.5l-48 48l377 378q13 -7 26 -7q22 0 36.5 15t14.5 36.5t-14.5 36.5t-36.5 15t-36.5 -15
t-14.5 -36q0 -13 3 -20l-381 -377l-48 48q35 34 74.5 105t70.5 147.5t57 149t40 118t14 46.5l295 119zM163 29q0 -26 -13 -39q21 -24 63 -52t88 -28q79 0 256 138q51 37 111 58.5t94 24.5l35 3h3q5 22 24 37t43 15q28 0 47.5 -20.5t19.5 -47.5q0 -28 -20 -47.5t-47 -19.5
q-23 0 -41.5 14.5t-25.5 36.5h-3q-65 -4 -173 -51q-18 -7 -59.5 -37t-81 -58.5t-92 -51.5t-93.5 -22q-101 0 -180 89q-19 -6 -25 -6q-28 0 -47.5 20t-19.5 47q0 28 20 47.5t47 19.5q30 0 50 -20.5t20 -49.5z" />
    <glyph glyph-name="uniE602" unicode="&#xe602;" 
d="M29 387l56 59l424 -279l424 280l57 -60l-481 -328zM29 568l480 329l481 -329l-481 -328zM509 -14l424 280l57 -59l-481 -329l-480 329l56 58z" />
    <glyph glyph-name="uniE603" unicode="&#xe603;" 
d="M435 765q152 0 261 -22q17 -4 31 -8q21 -5 41 -13t41 -24.5t21 -33.5l1 -117q10 -2 22 -4q16 -3 31 -7q20 -6 40.5 -14t41.5 -24t21 -34l2 -148q0 -29 -35.5 -51t-99.5 -35q-14 -3 -28 -5l1 -100q0 -29 -35.5 -51.5t-98.5 -34.5q-110 -22 -261.5 -22t-261.5 22
q-63 12 -98.5 34.5t-35.5 51.5v148q0 35 74 62q26 10 60 17q13 2 27 5v68q-11 2 -22 5q-64 12 -99 34.5t-35 51.5v148q0 35 74 62q26 10 60 17q109 22 260 22zM323 232q-87 19 -114 54q-15 -2 -25 -5q-39 -8 -59 -12q-1 -4 -2 -7q20 -5 61 -13q59 -12 139 -17zM131 174v-54
q22 -5 47 -10v53q-3 1 -8 1q-21 5 -39 10zM705 167v-53q43 9 49 11q-1 4 -1 8v48q-21 -8 -48 -14zM659 105v53q-28 -4 -59 -7v-54q32 4 59 8v0zM553 93v54q-39 -3 -81 -4v-54q42 1 81 4zM346 144v-54q39 -1 79 -2v54q-41 0 -79 2zM299 93v54q-38 3 -75 8v-53q34 -5 75 -9v0z
M813 478q-33 -32 -115 -48q-25 -5 -54 -9q114 3 195 19q43 9 63 13q-1 3 -2 7q-22 5 -61 13q-12 2 -26 5zM292 366v-55q28 -6 47 -9v52q-1 1 -3.5 1.5t-3.5 0.5q-22 4 -40 10zM867 359v-53q42 8 49 10q-1 4 -1 8v48q-22 -7 -48 -13zM820 296v54q-27 -5 -59 -8v-54q33 4 59 8
zM715 284v54q-39 -3 -82 -4v-54q40 1 82 4zM507 336v-54q41 -2 80 -2v54q-40 0 -80 2zM461 285v54q-39 3 -75 8v-54q32 -5 75 -8zM135 565v-54q20 -4 47 -10v53q-2 0 -7 1q-21 5 -40 10zM710 558v-53q41 9 49 11q-1 4 -1 8v48q-22 -8 -48 -14zM663 496v53q-28 -4 -58 -7v-54
q31 3 58 8zM558 484v54q-40 -3 -82 -4v-54q43 1 82 4zM350 535v-53q39 -2 80 -3v54q-41 1 -80 2zM304 485v53q-40 4 -75 8v-53q34 -5 75 -8zM129 660q0 -4 -2 -7q20 -5 62 -13q100 -20 246 -20t247 20q42 9 63 13q-1 3 -2 7q-20 4 -61 13q-101 20 -246.5 20t-246.5 -20
q-40 -9 -60 -13z" />
    <glyph glyph-name="uniE604" unicode="&#xe604;" 
d="M635 649q-8 -21 -31 -45l-189 -205q-41 -39 -41 -96q0 -279 94 -366q-138 16 -232.5 120.5t-94.5 245.5q0 80 32.5 151t89.5 122l246 265l96 -104q10 -10 14.5 -15.5t10.5 -15t8 -16.5t2 -17.5t-4 -21.5q-1 -1 -1 -2zM846 450q31 -70 31 -147q0 -100 -49.5 -184.5
t-134 -134t-183.5 -49.5h-1q-21 0 -41 2q-94 87 -94 366q0 -56 39.5 -95.5t95.5 -39.5q22 0 43 7q12 4 23 10l1 1l6 3q22 12 41 23.5t59.5 40.5t70 56.5t57.5 66t36 74.5zM635 649v-1q64 -23 115 -67.5t83 -104.5q7 -13 13 -26q-8 -36 -36 -74.5t-57.5 -66t-70 -56.5
t-59.5 -40.5t-41 -23.5l-6 -3l-1 -1q28 16 46 42.5t22 59.5q1 8 1 16q0 57 -41 96l-94 102l95 103q23 24 31 45zM861 450l-1 4q-6 14 -14 28q-32 59 -82 103.5t-111 69.5q2 9 2 17t-1 14.5t-4.5 13.5t-6 11.5t-8 11.5t-9 11t-10.5 11l-105 114l-255 -275q-59 -53 -92 -125
q-34 -75 -34 -157q0 -146 97 -255q96 -106 237 -123l4 -1q14 -1 27 -2l13 -1l-1 1h4q103 0 191 51t139 139t51 191q0 77 -31 148zM273 565l1 1l237 254l86 -93q10 -10 14 -15t9.5 -12.5t6.5 -13.5t1 -14t-3 -17l-1 -2v-1q0 -1 -1 -2q-7 -17 -27 -39l-189 -204
q-45 -43 -45 -105v-6q-1 -92 11 -166q1 -4 1 -8l1 -3q0 -3 1 -5v-3q1 -3 1 -5q1 -2 1 -3q0 -2 1 -5v-1v-2q1 -2 2 -5v-3q1 -3 2 -7v-2q1 -3 2 -5v-2v-1q1 -3 2 -5q0 -1 0.5 -3t1.5 -4v-3q1 -1 2 -4v-1v-2q1 -2 2 -5l1 -1q0 -3 2 -7v-1v-1q1 -3 2 -4q0 -1 1 -2v-1q1 -2 1 -4
q1 -1 1 -2l2 -4l1 -2q0 -2 1 -4l1 -1v-1l3 -6v-1q2 -3 2 -5q1 0 1 -1v-1q2 -2 2 -4q1 0 1.5 -1.5t1.5 -3.5q1 -1 1 -2l2 -4q1 -1 1 -2q1 -1 2 -3l1 -1v-1q2 -2 3 -5h1v-1q1 -2 2 -3q0 -1 1 -2q2 -2 2 -3l2 -2q0 -1 1 -1q-123 26 -201.5 123.5t-78.5 223.5q0 75 30.5 144
t86.5 119zM749 317zM632 302v-15q-4 -29 -20 -53t-42 -39q-10 -5 -21 -9q-19 -6 -38 -6q-51 0 -86.5 35.5t-35.5 86.5t37 87l31 34l54 57l85 -91q36 -36 36 -87zM834 447q0 -1 -1 -2v-1q0 -2 -0.5 -2.5t-0.5 -1.5q-1 -1 -1 -2v-1q-1 -2 -1 -3l-1 -1q0 -2 -1 -3v-1
q-1 -2 -1 -3l-1 -1q0 -1 -1 -3v-1l-2 -2v-2q-1 -1 -1 -2l-1 -1q-1 -2 -2 -3v-1q-1 -1 -2 -3v-1q-1 -2 -2 -3v-1q-1 -2 -2 -3l-1 -1q0 -1 -1 -2l-1 -2q-1 -1 -1 -2l-1 -1q-2 -4 -5 -8l-1 -1l-2 -2v-2l-2 -2l-1 -1q-1 -1 -2 -3l-1 -1q-1 -2 -2 -3l-1 -1q-3 -4 -6 -7l-1 -1
q-1 -2 -2 -3l-1 -1q-1 -2 -3 -3l-1 -1q-1 -1 -2 -3l-1 -1l-3 -3v-1q-4 -3 -8 -7l-1 -1q-1 -2 -2 -3l-2 -1q-1 -2 -2 -3l-1 -1q-2 -1 -3 -3l-1 -1l-4 -4q-2 -2 -5 -4q-2 -2 -4 -3l-1 -1q-1 -2 -3 -3l-1 -1q-2 -2 -4 -3l-1 -1q-1 -2 -3 -3l-1 -1l-10 -8q-3 -2 -4 -4l-2 -1
q-2 -1 -3 -2l-2 -2q-2 -1 -3 -2l-2 -1q-1 -2 -3 -3l-2 -1l-10 -8l-1 -1q-2 -1 -4 -3l-2 -1l-3 -3l-2 -1l-4 -2l-2 -2q-1 -1 -4 -2l-1 -1q-3 -3 -6 -4q-2 -2 -5 -4l-2 -1l-1 -1q9 21 12 43q1 9 1 18q0 62 -45 106l-86 92l88 94q1 1 2 3l1 1l2 2l1 1l2 2l1 1l2 2v1q1 1 2 3h1
q1 1 2 3q1 1 2 3t2 3q1 2 2 3q1 2 2 3v1l2 2q1 2 1 3q119 -48 180 -162q6 -11 11 -21v-1zM453 -24q-3 4 -5 7v1q-1 2 -2 3l-1 1q-1 2 -1 3l-1 1q-1 1 -1 3l-1 1q-1 1 -2 3q-2 4 -4 9l-2 4v1q-1 1 -2 3v1l-2 4q-1 2 -2 5q-2 4 -3 9l-1 1q0 2 -1 4v1l-2 4v1l-2 4v1q-2 7 -4 15
l-1 1q0 2 -1 4v1q-1 2 -1 4l-1 1q0 3 -1 5v1q-2 8 -4 17v1q0 2 -1 4v2q-1 2 -1 4v1q-1 3 -1 5v1l-2 12l-1 1v5l-1 2v4l-1 2v5v1q-1 3 -1 6v1l-2 12v2v5l-1 2v4v2q0 2 -1 5v2v5v2q-1 6 -1 13v2l-1 2q21 -29 53 -45t68 -16q24 0 47 7q13 5 25 11q1 1 2 1l1 1q1 1 4 2
q79 45 138 92l6 6l2 1q3 2 4 4q2 1 3 2q2 2 4 3l2 2l4 4l2 1l4 4l2 2q3 2 5 5l1 1q3 2 5 4l2 2q2 2 3 4q1 0 2 1q2 2 3 4h1q1 1 1 2q2 1 4 3v1l1 1l5 5q2 3 5 5l1 2q2 2 3 4q1 0 1 1h1q1 2 3 4q0 1 1 2l3 3l1 2q1 1 3 4h1v1l4 6l-3 2l3 -2q2 2 4 5l1 1l2 4l1 1v1q2 1 3 3
q0 1 1 2q1 2 2 3v1l1 1l2 4l1 1q1 3 3 6v1l2 4q1 0 1 1l2 4q0 1 1 2v1q17 -52 17 -108q0 -96 -47.5 -178t-129 -129.5t-177.5 -47.5q-18 0 -36 2l-2 2l-1 1l-1 1l-1 1l-2 2l-1 1l-2 2v1q-1 1 -2 3h-1q-1 1 -2 3l-1 1q0 1 -1 2l-1 1l-2 2v1q-1 2 -2 3v0z" />
    <glyph glyph-name="uniE605" unicode="&#xe605;" 
d="M1002 298q-10 90 -22.5 158.5t-34 132.5t-49.5 104.5t-69.5 64.5t-95.5 24q-31 0 -62 -15t-53 -33.5t-51.5 -35t-57.5 -19.5q-28 3 -57.5 19.5t-51 35t-52.5 33.5t-63 15q-53 0 -95 -24t-70 -64.5t-49 -104.5t-33.5 -132.5t-22.5 -158.5q-31 -277 89 -276q37 0 64.5 12.5
t46 33t34 42.5t37 46t45.5 39q44 22 178 28q135 -6 178 -28q25 -15 46.5 -39t36.5 -46t34 -42.5t46.5 -33t63.5 -12.5q121 -1 90 276zM286 323q-54 0 -92 38t-38 92t38 92t92 38t92 -38t38 -92t-38 -92t-92 -38zM871 427h-102v-102h-49v102h-103v49h103v102h49v-102h102v-49
zM212 453q0 -31 21.5 -53t52.5 -22t52.5 22t21.5 53v0q0 30 -21.5 52t-52.5 22t-52.5 -22t-21.5 -52z" />
    <glyph glyph-name="uniE606" unicode="&#xe606;" 
d="M512 -122q-98 0 -187.5 38.5t-154 103t-103 154t-38.5 187.5t38 187t102 153.5t153 103.5t186 39q4 2 16 9q44 26 72 31q13 2 24.5 -5.5t14 -21t-5.5 -25t-21 -13.5q-17 -3 -51 -23q-30 -18 -45 -18q-113 0 -209 -55.5t-152 -152t-56 -209.5t56 -209t152 -151.5
t209 -55.5t209 55.5t152 151.5t56 209q0 80 -29 153t-83 131q-17 18 -59 152q-29 -31 -52.5 -51t-37.5 -28t-26.5 -10t-17 -0.5t-11.5 5.5q-12 6 -16 19t3 25q11 21 33 18q15 7 48.5 39t66.5 70q13 15 32 10.5t24 -22.5q49 -161 64 -184q61 -66 94 -150.5t33 -176.5
q0 -98 -38.5 -187.5t-103 -154t-154 -103t-187.5 -38.5zM524.5 86q-94.5 0 -159 49.5t-75.5 130.5h-29q-14 0 -24 9.5t-10 23t10 23.5t24 10h59q14 0 23.5 -10t9.5 -23q0 -72 50.5 -109.5t121 -37.5t121 37.5t50.5 109.5q0 13 9.5 23t23.5 10h58q14 0 23.5 -10t9.5 -23.5
t-9.5 -23t-23.5 -9.5h-28q-11 -81 -75.5 -130.5t-159 -49.5zM406 472.5q0 -23.5 -16.5 -40t-40 -16.5t-40.5 16.5t-17 40t17 40t40.5 16.5t40 -16.5t16.5 -40zM751 472.5q0 -23.5 -16.5 -40t-40 -16.5t-40.5 16.5t-17 40t17 40t40.5 16.5t40 -16.5t16.5 -40z" />
    <glyph glyph-name="uniE607" unicode="&#xe607;" horiz-adv-x="1025" 
d="M197 178q167 -3 273 -47q2 -1 4 -1q3 0 5 2q4 3 4 8v520q0 6 -6 9l-276 110q-5 1 -9 -1.5t-4 -7.5v-582q0 -10 9 -10zM988 686q-4 3 -8 2l-98 -29q-7 -2 -7 -10v-502q0 -8 -8 -8h-16q-211 0 -320 -62l-19 -11l-19 11q-109 62 -320 62h-21q-3 0 -3 5v505q0 8 -7 10l-98 29
q-4 1 -8 -2t-4 -7v-608q0 -4 3 -7t8 -2q63 6 125 6q173 0 262 -48q60 -31 82 -31t82 31q89 48 262 48q62 0 125 -6q5 -1 8 2t3 7v608q0 4 -4 7zM545 132q2 -2 5 -2q2 0 4 1q106 44 273 47q9 0 9 10v582q0 5 -4.5 7.5t-8.5 1.5l-276 -110q-6 -3 -6 -9v-520q0 -5 4 -8z" />
    <glyph glyph-name="uniE608" unicode="&#xe608;" 
d="M238.5 572.5q-17.5 55.5 -63 87t-92 21t-67.5 -57.5t-3.5 -102t62.5 -87t92 -21t68 57.5t3.5 102zM364.5 865q-48.5 0 -83 -46.5t-34.5 -113t34.5 -113t83 -46.5t83 46.5t34.5 113t-34.5 113t-83 46.5zM143 172q0 -73 48 -135t131 -98t180.5 -36t180.5 36t131 98t48 135
t-48 135t-131 98t-180.5 36t-180.5 -36t-131 -98t-48 -135zM645 865q-49 0 -83 -46.5t-34 -113t34 -113t83 -46.5t83 46.5t34 113t-34 113t-83 46.5zM924 680.5q-47 10.5 -92.5 -21t-62.5 -87t3.5 -102t67.5 -57.5t92.5 21t62.5 87t-3.5 102t-67.5 57.5zM679 56
q-6 -2 -27 -2q-32 0 -86 4q-15 1 -31 1q-88 0 -174 -19h-2q-4 0 -8 3q-3 4 -28 25q-4 3 -3 8v3q-3 5 -0.5 11t9.5 6h6q125 126 203 179q-44 -7 -116 -21q-20 -4 -23 -5h-2q-17 0 -48 25q-5 4 -3.5 10t6.5 8q31 9 99.5 18t110.5 12q5 1 10 1q45 0 62 -23q4 -5 1 -10.5
t-9 -5.5h-1h-5q-59 -49 -182 -180q-1 -1 -2 -3l-2 -2q30 2 98 2q31 0 86 -1h16q28 0 51 -28q3 -4 1 -9.5t-7 -6.5z" />
    <glyph glyph-name="uniE609" unicode="&#xe609;" 
d="M836 88q70 22 113 81.5t43 132.5q0 60 -30 112t-82 82q-5 144 -107 246q-106 104 -254.5 104t-253.5 -104q-103 -102 -108 -246q-52 -30 -82 -82t-30 -112q0 -73 43.5 -132.5t112.5 -81.5l-49 -158h71l19 56l47 158h-15h-3q-65 0 -110.5 46t-45.5 110q0 68 49 114
q17 -89 74.5 -159t141.5 -105l-68 -220h71l18 56l73 209l-12 2q-102 20 -168 100q-68 81 -68 187q0 121 86 206.5t207 85.5t206.5 -85.5t85.5 -206.5q0 -106 -67 -187q-67 -80 -168 -100l-13 -2l73 -209l18 -56h71l-15 48l-53 172q84 35 141.5 105t74.5 159q50 -46 50 -114
q0 -64 -46 -110t-111 -46h-3h-15l43 -144l23 -70h71zM348 479v-11q0 -71 50 -121t120.5 -50t120.5 50t50 121v11h-70v-11q0 -42 -29.5 -71.5t-71 -29.5t-71 29.5t-29.5 71.5v11h-70z" />
    <glyph glyph-name="uniE60A" unicode="&#xe60a;" 
d="M939 -47l-97 -23q-37 -9 -46 -4t-18 41l-10 37l201 48l6 -24q1 -6 4 -15q9 -34 4 -42.5t-44 -17.5zM640 475q-9 37 -3.5 45.5t43.5 17.5l96 23q38 8 46.5 4.5t15.5 -29.5l117 -435l-201 -48zM504 -76h-60q-42 0 -54.5 8t-12.5 43v753h193v-753q0 -36 -10.5 -43.5
t-55.5 -7.5zM377 793q0 35 12.5 43t54.5 8h60q41 0 53.5 -8t12.5 -43v-40h-193v40zM244 -76h-152q-39 0 -46 7t-7 44v43h259v-43q0 -37 -7.5 -44t-46.5 -7zM39 88h259v-44h-259v44zM39 486h259v-372h-259v372zM39 601q0 37 7 44.5t46 7.5h152q39 0 46.5 -7.5t7.5 -44.5v-64
h-259v64z" />
    <glyph glyph-name="uniE60B" unicode="&#xe60b;" 
d="M830 404h-485q-18 0 -31 12.5t-13 30.5v325q0 18 13 31t31 13h485q18 0 30.5 -13t12.5 -31v-325q0 -18 -12.5 -30.5t-30.5 -12.5zM345 783q-5 0 -8 -3t-3 -8v-325q0 -4 3 -7.5t8 -3.5h485q4 0 7.5 3.5t3.5 7.5v325q0 5 -3.5 8t-7.5 3h-485zM857 688h-539q-7 0 -12 5
t-5 11.5t5 11.5t12 5h539q7 0 11.5 -5t4.5 -11.5t-4.5 -11.5t-11.5 -5zM738 575h-334q-7 0 -11.5 5t-4.5 11.5t4.5 11.5t11.5 5h334q7 0 12 -5t5 -11.5t-5 -11.5t-12 -5zM660 520h-256q-7 0 -11.5 5t-4.5 11.5t4.5 11.5t11.5 5h256q6 0 11 -5t5 -11.5t-5 -11.5t-11 -5z
M215 -48q-20 0 -37 17q-13 13 -115 108l-25 24q-24 22 -22 44q1 16 15 25q20 14 63 49q14 11 31.5 10t31.5 -13q9 -9 66 -59q82 -73 88 -79q17 -15 15 -33q-1 -19 -20 -33q-16 -11 -54 -43l-6 -5q-14 -12 -31 -12zM124 196q-5 0 -10 -3q-44 -35 -64 -50q-3 -5 10 -18l26 -24
q101 -95 115 -108q13 -13 24 -4l6 5q39 33 56 45q7 5 7 8q0 2 -5 7q-6 6 -88 79q-58 51 -66 59q-6 4 -11 4zM341 56q-6 0 -11 5l-159 142q-4 3 -5 8l-4 16q-3 9 5 16q8 8 22 19.5t45 34t65 38.5t62 18q58 4 284 -9q52 -2 64 -3q27 -1 41.5 -13.5t15.5 -28.5q1 -14 -10.5 -26
t-33.5 -14q-23 -3 -113 -9q-83 -6 -90 -8q-1 0 -3 -2q1 0 5 -1.5t12 -3t18 -2.5q150 -14 192 -9q20 3 110 71q38 29 49 35q25 16 54 16q34 0 49 -24q8 -13 -3 -31.5t-26 -30.5q-200 -167 -265 -176q-35 -6 -167 1q-65 4 -86 4q-15 0 -20 -1q-20 -4 -67 -28q-3 -2 -7 -2
l-21 -2h-2zM196 224l151 -134h11q41 23 73 30q17 3 114 -2q129 -7 161 -2q56 8 246 167q15 12 22 25q-9 6 -26.5 3.5t-28.5 -9.5q-10 -6 -46 -33q-98 -74 -126 -77q-46 -6 -199 9q-62 5 -65 36q-1 13 8 23.5t20 13.5q7 2 96 8q88 6 112 9q15 2 14 7q0 1 -2.5 3.5t-8.5 4.5
t-14 2q-11 1 -65 4q-224 12 -280 8q-35 -2 -82.5 -32t-84.5 -63v-1z" />
    <glyph glyph-name="uniE60C" unicode="&#xe60c;" 
d="M956 224q-2 -21 0 -61t0 -72t-13 -60q-31 -78 -120 -79q-293 -1 -624 0q-52 1 -87.5 30.5t-41.5 79.5q-3 24 -3 50.5t1 61t1 50.5l8 2q5 -20 5 -21v-63v-62q1 -47 33 -79.5t78 -32.5h635q47 0 78.5 32t32.5 79q1 14 0.5 58t0.5 58q0 2 2 30q7 0 14 -1zM508 -54
q-150 0 -309 1q-54 0 -91 31.5t-43 82.5q-5 38 -2 113q1 34 1 50v4l17 4l1 -5q1 -2 2 -6q3 -10 3 -16v-58v-67q1 -45 31.5 -75.5t74.5 -31.5h318h317q45 1 75 31t31 75q1 23 0 68v48q0 7 2 21q0 6 1 9v6l24 -2v-5q-2 -21 0 -64q4 -88 -13 -131q-16 -39 -48 -60t-77 -22
q-152 -1 -315 -1zM74 219q0 -15 -1 -45q-2 -75 2 -112q6 -46 40 -75t84 -30h309q162 0 315 1q86 0 115 75q17 41 13 127q-2 39 -1 59l-4 1v-5q-1 -13 -1 -20v-48q0 -45 -1 -68q0 -49 -33.5 -82.5t-82.5 -33.5h-317h-318q-48 0 -82 34q-33 34 -34 83v67v58q0 4 -3 13v1z
M508 -59q-150 0 -309 1q-56 0 -94.5 33t-44.5 86q-5 37 -2 113q1 34 1 50v9l26 5l2 -10q0 -2 2 -6q3 -10 3 -16v-59q0 -45 1 -67q0 -43 29 -72t71 -29q157 -1 318 -1q157 0 317 1q42 0 71 28.5t30 72.5v67v48q0 7 2 22v9l1 10l34 -2v-10q-2 -21 0 -64q4 -89 -13 -133
q-17 -41 -50 -63t-80 -22q-153 -1 -315 -1zM508 -64q-150 0 -309 1q-58 0 -97.5 34t-46.5 89q-5 38 -3 115q1 33 1 49v13l36 6l3 -14q0 -1 2 -5q3 -12 3 -18q1 -20 0 -59q0 -45 1 -67q0 -41 27.5 -68.5t67.5 -27.5q157 -1 318 -1q157 0 317 1q40 0 67.5 27.5t28.5 68.5v67
v48q0 8 2 22h5h-5v9l1 15l45 -3l-1 -15q-1 -20 0 -63q4 -90 -14 -135q-17 -42 -51.5 -65t-82.5 -23q-152 -1 -315 -1zM64 228v-4q0 -16 -1 -50q-3 -75 2 -113q6 -51 43 -82.5t91 -31.5q159 -1 309 -1q163 0 315 1q45 1 77 22t48 60q17 43 13 131q-2 43 0 64v5l-24 2v-6
q-1 -3 -1 -9q-2 -14 -2 -21v-48q1 -45 0 -68q-1 -45 -31 -75t-75 -31h-317h-318q-44 1 -74.5 31.5t-31.5 75.5v67v58q0 6 -3 16q-1 4 -2 6l-1 5zM298 328l212 -178v498h12v-487l10 -5l205 179q2 -1 4 -3.5t4 -3.5q-14 -17 -15 -18q-139 -123 -192 -167q-6 -5 -18.5 -6.5
t-17.5 2.5q-54 44 -205 172q-1 0 -6 10q3 4 7 7zM514 131q-10 0 -15 4q-59 48 -174 145q-21 18 -32 27q-3 2 -5 8q-1 3 -2 4l-2 3l13 13l207 -174v493h23v-490l4 -1l207 179l14 -14l-3 -4l-5 -5q-6 -9 -10 -13q-8 -7 -26 -23q-110 -97 -167 -144q-9 -8 -27 -8zM515 643v-502
q13 1 20 6q56 47 166 144q16 14 26 23q3 3 9 11l2 2l-1 1l-204 -178l-16 8v485h-2zM297 320q2 -4 3 -5q10 -9 31 -27q116 -98 174 -145q2 -1 7 -2l-214 180zM514 126q-12 0 -18 5q-59 48 -174 145q-21 18 -32 27q-4 3 -7 10q-1 2 -1 3l-4 7l19 19l202 -170v487h33v-489
l206 179l20 -21l-5 -7q-2 -2 -4 -5q-7 -10 -12 -14q-11 -9 -26 -23q-110 -97 -166 -144q-12 -9 -31 -9zM520 151v-4q3 0 6 1zM514 121q-14 0 -22 6q-58 48 -174 145q-21 18 -31 27q-5 4 -9 12q0 2 -1 2l-6 11l26 25l197 -166v481h44v-482l200 174l27 -27l-8 -11q-2 -2 -4 -5
q-7 -10 -13 -15q-10 -9 -26 -22q-110 -97 -166 -145q-13 -10 -34 -10zM284 322l2 -3q1 -1 2 -4q2 -6 5 -8q11 -9 32 -27q115 -98 174 -145q5 -4 15 -4q18 0 27 8q57 47 167 144q15 14 26 23q4 4 10 13q3 4 5 5l3 4l-14 14l-211 -183v495h-23v-493l-207 174zM515 141v18
l24 -12l-12 -4q-3 -1 -6 -1z" />
    <glyph glyph-name="uniE60D" unicode="&#xe60d;" 
d="M511 748q-91 0 -174 -35.5t-142.5 -95.5t-95 -142.5t-35.5 -173.5t35.5 -173.5t95 -142.5t142.5 -95.5t174 -35.5t173.5 35.5t142.5 95.5t95.5 142.5t35.5 173.5t-35.5 173.5t-95.5 142.5t-142.5 95.5t-173.5 35.5zM511 -93q-107 0 -198 52.5t-143.5 143.5t-52.5 198
t52.5 198t143.5 143.5t198 52.5t198 -52.5t143.5 -143.5t52.5 -198t-52.5 -198t-143.5 -143.5t-198 -52.5zM485 64h52v53h-52v-53zM511 538q-61 -2 -96.5 -44t-35.5 -114h53q0 105 79 105t79 -79q0 -9 -1 -16t-4 -14l-5 -10q-1 -4 -8 -10.5t-9 -8t-12.5 -10t-13.5 -10.5
q-29 -24 -41 -48t-11 -57v-52h52v52q-2 18 4.5 27t27.5 25q39 32 56 61.5t17 70.5q0 61 -35 96.5t-96 35.5z" />
    <glyph glyph-name="uniE60E" unicode="&#xe60e;" 
d="M947 276.5q-21 48.5 -57 84.5q-36 37 -84 58q-49 21 -104 21t-104 -21q-48 -21 -84 -57.5t-57 -85t-21 -103.5t21 -103q21 -49 57 -85t84.5 -57t103.5 -21t104 21q48 21 84 57t57 84.5t21 103.5t-21 103.5zM859 255l-124 -223q-1 -1 -2 -3h-1q-1 -2 -2 -3h-1q0 -1 -1 -2
h-1h-1v-1q-2 -1 -4 -1v-1q-2 -1 -4 -1h-1q-1 -1 -3 -1h-1v0q-1 -1 -4 -1h-1q-3 -1 -5.5 -1t-5.5 1h-2q-2 0 -4 1q-2 0 -4 1h-1q-1 0 -3 1l-1 1q-2 0 -3 1l-1 1q-2 1 -3 2q-2 1 -3 3q-2 2 -2 3l-124 223q-5 9 1 17t20 11t27 -1t17 -12l91 -164l91 164q5 8 18 12l13 4
q5 -1 14 -3q13 -3 19.5 -11t1.5 -17zM386 174q0 50 14.5 95t40.5 83t62 68q35 29 79 47q2 7 4 12l4 12q3 11 4 11q8 3 15 10q7 5 13 16q5 10 7 29q2 14 0 23t-6 15q-3 7 -9 11q0 35 -5 68q-4 31 -14 62q-10 33 -32 60q-9 12 -26 24t-37 21q-22 9 -45 14q-24 6 -49 6
q-19 0 -39.5 -3t-42.5 -11q-21 -9 -40 -24q-20 -14 -37 -38t-26 -56q-8 -31 -12 -58q-3 -32 -3 -64q-8 -9 -11 -18q-4 -9 -5 -21t3.5 -26.5t10 -21.5t11.5 -12q5 -4 11 -6q5 -15 9 -26q5 -12 10 -21q5 -11 12 -17q15 -12 26 -23q12 -12 13 -31q1 -13 1 -24t-4 -21t-14 -21
q-9 -10 -27 -22q-16 -9 -34 -15q-18 -7 -37 -12q-24 -7 -38 -11q-19 -7 -34 -16q-15 -10 -25 -23q-11 -14 -14 -35q-9 -55 -4.5 -90t14.5 -42q4 -4 24 -8q22 -5 47 -8q23 -4 62 -9q38 -4 69 -6q36 -3 67 -5q34 -2 57 -2h23q-20 36 -31.5 76t-11.5 84z" />
    <glyph glyph-name="uniE60F" unicode="&#xe60f;" 
d="M685 464h-345q-20 0 -34.5 14.5t-14.5 34.5v128q0 20 14.5 34t34.5 14h59q5 43 37.5 71t75.5 28t75.5 -28t38.5 -71h59q20 0 34 -14t14 -34v-128q0 -20 -14 -34.5t-34 -14.5zM340 642q-2 0 -2 -1v-128q0 -2 2 -2h345q1 0 1 2v128q0 1 -1 1h-108l2 26q1 3 1 6
q0 28 -20 47.5t-48 19.5t-47.5 -19.5t-19.5 -47.5v-6l2 -26h-107zM312 49h399v-47h-399v47zM312 199h399v-47h-399v47zM312 349h399v-47h-399v47zM816 -156h-611q-24 0 -41.5 17.5t-17.5 41.5v638q0 24 17.5 41.5t41.5 17.5h84v40q0 20 14.5 34.5t34.5 14.5h59
q6 42 38.5 70.5t75.5 28.5t75.5 -28.5t38.5 -70.5h59q20 0 34.5 -14.5t14.5 -34.5v-40h83q25 0 42 -17.5t17 -41.5v-638q0 -24 -17 -41.5t-42 -17.5zM205 552q-4 0 -7.5 -3.5t-3.5 -7.5v-638q0 -5 3.5 -8.5t7.5 -3.5h611q5 0 8.5 3.5t3.5 8.5v638q0 4 -3.5 7.5t-8.5 3.5
h-131v88q0 2 -1 2h-108l2 25q1 4 1 6q0 28 -20 48t-48 20t-48 -20t-20 -48v-6l3 -25h-108q-2 0 -2 -2v-88h-131z" />
    <glyph glyph-name="uniE610" unicode="&#xe610;" 
d="M512 783q-98 0 -187.5 -38t-154.5 -102.5t-103 -154t-38 -188t38 -188t103 -154t154.5 -103t187.5 -38.5t187.5 38.5t154 103t103 154t38.5 188t-38.5 188t-103 154t-154 102.5t-187.5 38zM512 -115q-113 0 -208.5 55.5t-151 151.5t-55.5 208.5t55.5 208t151 151.5
t208.5 56t208.5 -56t151 -151.5t55.5 -208t-55.5 -208.5t-151 -151.5t-208.5 -55.5zM754 551l-5 19l-20 5q-19 5 -49 5q-131 0 -244 -106h-10q-15 0 -31.5 -2t-43.5 -12t-48.5 -26.5t-41.5 -49t-28 -76.5l-26 -130l85 102q22 26 48 31l-19 -40l130 -130l39 20
q-4 -26 -30 -48l-102 -85l130 25q44 9 77 29t49.5 42t26 49.5t11.5 46t1 36.5q39 41 63.5 86.5t32.5 78.5t9 66t-0.5 44.5t-3.5 19.5zM594 293l-12 -12l3 -18q9 -57 -26 -99q1 31 -17 59l-25 26l-53 -26l-61 62l25 53l-20 21l-6 4q-27 17 -58 17q32 27 82 27q10 0 17 -1
l17 -3l12 12q97 97 208 97h11q1 -26 -3.5 -54.5t-28 -75.5t-65.5 -89zM343 224l-60 -132l12 -12l132 60z" />
    <glyph glyph-name="uniE611" unicode="&#xe611;" horiz-adv-x="1025" 
d="M512 729q-127 0 -217 -89.5t-90 -217t90 -217.5t217 -90t217 90t90 217.5t-90 217t-217 89.5zM384 525q21 0 36 -15t15 -36.5t-15 -36.5t-36 -15t-36 15t-15 36.5t15 36.5t36 15zM511.5 218q-39.5 0 -72.5 15.5t-52 38t-32 45.5t-18 38l-4 16h51q0 -4 1.5 -11t9.5 -24.5
t20.5 -31t38 -24.5t58.5 -11t58.5 10.5t38 25.5t20 30t9.5 26l2 10h51l-5 -17q-4 -10 -18 -36.5t-32 -46.5t-51.5 -36.5t-73 -16.5zM639.5 422q-21.5 0 -36 15t-14.5 36.5t14.5 36.5t36 15t36.5 -15t15 -36.5t-15 -36.5t-36.5 -15zM972 525h-51q-2 6 -6.5 17t-21 43t-37 61
t-55 64.5t-74.5 61t-96.5 43t-118.5 17.5q-211 0 -343 -182q-47 -66 -67 -125h-51q-44 0 -50 -43q-2 -8 -1 -8v-154q0 -22 13 -35t25 -14l13 -2h51q0 -7 1 -19t7.5 -46.5t18 -66t36 -70t58.5 -66t89 -46.5t123 -19h102q18 1 23.5 2t14.5 5.5t11.5 15t2.5 28.5q0 12 -1 18.5
t-5.5 15.5t-16 13.5t-29.5 4.5h-51q-18 0 -29.5 -4t-15.5 -13t-5 -15.5t-1 -19.5q-32 0 -68 9.5t-74.5 31.5t-69 53.5t-50 80.5t-19.5 107v230q1 6 5 16t18 39.5t31.5 56t48 59t65 56t84.5 39.5t106 16t106 -16t85 -40.5t64.5 -55t48 -60t31 -54.5t18 -40t5.5 -16v-230h102
q22 0 35 12.5t15 25.5l1 13v154q0 23 -12.5 36t-25.5 14z" />
    <glyph glyph-name="uniE612" unicode="&#xe612;" 
d="M908 655q-55 46 -125.5 54t-132 -16.5t-102.5 -71.5q-19 26 -43 47.5t-57 40.5t-69 28.5t-80.5 6.5t-90.5 -21q-61 -25 -104 -73t-59 -110t-7.5 -129t53.5 -136t122 -124q57 -40 124.5 -69t121.5 -43l68 -16q2 9 14 11q6 0 12 8.5t14 9.5q7 1 11.5 4.5t5.5 5.5l1 3
q-7 1 -19.5 3.5t-50.5 13.5t-74 25t-84 39.5t-87 56.5q-60 48 -91 101.5t-32 101.5t13.5 88.5t42.5 73.5q37 43 85.5 62t94.5 14.5t86 -26.5q53 -31 80 -73t23 -85q-3 -25 -12 -31.5t-18 1.5t-14 22q-2 8 -3 17t-0.5 15.5t2.5 14.5t3.5 12t4 10t3.5 8q-17 23 -31 33
q-23 -45 -17 -83q5 -27 23.5 -46t39.5 -17.5t31 26.5q8 16 8 55.5t-15 74.5q34 33 73.5 47.5t95.5 3.5q63 -12 101.5 -70.5t14.5 -130.5q-11 -36 -34.5 -62.5t-48 -39t-48 -20t-38.5 -8.5l-14 -1q0 -31 -14 -46q-13 -15 -12 -32.5t-2 -22.5q-5 -6 -5.5 -18.5t0.5 -22.5l2 -9
q9 1 25.5 4.5t69 25t107.5 56.5q57 35 94.5 89.5t44.5 123.5q13 136 -81 216z" />
  </font>
</defs>
</svg>
